<?xml version="1.0"?>

<svg width="100%" height="100%" viewBox="0 0 576 576" version="1.1" xmlns="http://www.w3.org/2000/svg" xmlns:xlink="http://www.w3.org/1999/xlink" xml:space="preserve" xmlns:serif="http://www.serif.com/" style="fill-rule:evenodd;clip-rule:evenodd;stroke-linejoin:round;stroke-miterlimit:2;">
    <g transform="matrix(1,0,0,1,0.132812,2.21391)">
        <g transform="matrix(1.024719,0,0,1.024719,-96.39447,-93.509404)">
            <path d="M374.992,598.32L96.867,306.613L203.102,162.629L546.883,162.629L653.117,306.613L374.992,598.32Z" style="fill:rgb(15,118,110);fill-rule:nonzero;"></path>
        </g>
        <g transform="matrix(1.024719,0,0,1.024719,-96.39447,-93.509404)">
            <clipPath id="_clip1">
                <path d="M375.082,542.73L146.316,303.512L221.668,200.473L528.504,200.473L603.668,302.969L375.082,542.73Z"></path>
            </clipPath>
            <g clip-path="url(#_clip1)">
                <path d="M374.996,542.719L146.316,313.574L233.664,200.469L516.324,200.469L603.676,313.574L374.996,542.719Z" style="fill:rgb(20,184,166);fill-rule:nonzero;"></path>
            </g>
        </g>
        <g transform="matrix(1.024719,0,0,1.024719,-96.39447,-93.509404)">
            <path d="M505.277,276.32C491.926,280.887 478.578,285.473 465.238,290.086C444.727,297.172 424.219,304.27 403.703,311.348C408.707,303.445 413.711,295.543 418.711,287.641C431.887,266.82 445.059,246 458.23,225.176C461.285,220.352 464.34,215.523 467.391,210.695C470.457,205.848 465.375,199.398 459.949,201.016C436.297,208.07 412.707,215.352 389.059,222.426C404.375,202.883 419.691,183.336 435.008,163.797C437.75,160.297 440.484,156.797 443.215,153.293C444.891,151.145 445.762,148.738 444.586,146.062C443.609,143.844 441.152,141.738 438.535,141.992C418.484,143.938 398.438,145.883 378.391,147.828C368.855,148.754 359.328,149.68 349.797,150.605C346.66,150.906 343.957,151.41 341.988,154.328C341.137,155.586 340.375,156.914 339.57,158.203C329.289,174.691 319.023,191.184 308.75,207.676C294.492,230.566 280.191,253.426 266.059,276.391C260.594,285.27 255.152,294.16 249.668,303.023C249.43,303.41 249.16,303.789 248.945,304.188C248.797,304.461 248.508,305.039 248.316,305.434C247.871,306.23 247.43,307.031 246.988,307.832C246.219,309.219 245.449,310.605 244.68,311.988C243.906,313.387 243.105,314.773 242.352,316.184C241.348,317.242 240.891,318.629 240.891,320.027C240.855,320.672 240.945,321.281 241.137,321.848C241.914,324.625 244.465,326.871 248.039,325.82C268.355,319.867 288.66,313.871 308.965,307.883C308.891,308 308.82,308.117 308.746,308.234C302.242,318.547 296.125,329.125 289.898,339.605C275.949,363.082 262.039,386.574 248.109,410.059C244.871,415.516 241.637,420.969 238.402,426.422C235.105,431.98 241.484,437.219 246.711,434.73C273.984,421.766 301.23,408.746 328.559,395.914C322.863,408.98 317.172,422.051 311.523,435.137C299.066,463.988 286.656,492.855 274.258,521.73C271.395,528.395 268.531,535.059 265.672,541.723C264.457,544.555 264.598,547.695 267.262,549.688C269.602,551.434 273.277,551.531 275.367,549.203C283.199,540.473 291.121,531.828 299.016,523.152C317.895,502.406 336.738,481.629 355.5,460.777C378.27,435.477 401.074,410.211 423.789,384.863C443.359,363.031 462.934,341.199 482.547,319.402C492.078,308.812 501.859,298.398 511.188,287.625C511.32,287.473 511.461,287.324 511.598,287.172C515.664,282.68 511.785,274.094 505.277,276.32Z" style="fill:white;fill-rule:nonzero;"></path>
        </g>
    </g>
</svg>